<?xml version="1.0" encoding="iso-8859-1"?>
<!-- Generator: Adobe Illustrator 18.0.0, SVG Export Plug-In . SVG Version: 6.00 Build 0)  -->
<!DOCTYPE svg PUBLIC "-//W3C//DTD SVG 1.1//EN" "http://www.w3.org/Graphics/SVG/1.1/DTD/svg11.dtd">
<svg version="1.1" id="Capa_1" xmlns="http://www.w3.org/2000/svg" xmlns:xlink="http://www.w3.org/1999/xlink" x="0px" y="0px"
	 viewBox="0 0 475.418 475.418" style="enable-background:new 0 0 475.418 475.418;" xml:space="preserve">
<g>
	<path d="M443.339,150.196c-22.993-0.807-45.554,2.028-67.028,8.249c-1.478-22.483-6.531-44.523-15.115-65.764
		c-3.104-7.682-11.85-11.39-19.526-8.288c-20.186,8.156-38.699,19.116-55.255,32.684c-9.952-18.973-22.711-36.295-38.097-51.681
		c-2.813-2.813-6.628-4.394-10.606-4.394s-7.794,1.581-10.606,4.394c-15.387,15.387-28.147,32.71-38.099,51.685
		c-16.567-13.574-35.081-24.534-55.264-32.688c-7.684-3.104-16.423,0.607-19.526,8.288c-8.583,21.241-13.636,43.282-15.114,65.763
		c-21.471-6.219-44.03-9.054-67.025-8.249c-8.279,0.289-14.757,7.235-14.468,15.514c1.989,56.941,26.032,109.701,67.703,148.559
		c15.842,14.773,33.514,26.854,52.459,36.058c-14.022,20.672-22.038,45.004-22.92,70.285c-0.288,8.276,6.186,15.221,14.462,15.513
		c1.508,0.053,3.062,0.079,4.749,0.079c20.089,0,39.534-4.543,57.101-12.871c9.617,17.415,21.641,33.392,35.941,47.691
		c2.813,2.813,6.628,4.394,10.606,4.394s7.794-1.581,10.606-4.394c14.3-14.3,26.324-30.277,35.942-47.693
		c17.568,8.329,37.013,12.873,57.103,12.873c1.688,0,3.242-0.026,4.75-0.079c8.276-0.292,14.75-7.237,14.462-15.513
		c-0.882-25.279-8.899-49.612-22.925-70.289c18.943-9.204,36.615-21.284,52.454-36.054c41.67-38.858,65.713-91.617,67.702-148.559
		C458.096,157.431,451.619,150.485,443.339,150.196z M346.744,169.468c-20.411,9.411-39.408,22.128-56.323,37.902
		c-10.347,9.649-19.605,20.157-27.711,31.372c-2.164-10.358-5.104-20.568-8.82-30.586c9.184-20.861,21.975-39.575,38.103-55.694
		c13.704-13.721,29.348-25.044,46.648-33.784C343.76,135.209,346.467,152.211,346.744,169.468z M237.712,98.142
		c10.448,12.366,19.127,25.95,25.944,40.581c-9.882,10.872-18.549,22.658-25.947,35.268c-7.401-12.616-16.066-24.402-25.941-35.267
		C218.585,124.092,227.264,110.507,237.712,98.142z M136.773,118.678c17.301,8.739,32.948,20.063,46.67,33.792
		c17.469,17.459,31.049,37.996,40.363,61.042c8.89,21.988,13.397,45.111,13.397,68.725c0,0.249-0.002,0.482-0.003,0.724
		c-11.514-28.351-29.156-54.1-52.203-75.591c-16.917-15.775-35.916-28.494-56.327-37.904
		C128.947,152.21,131.654,135.209,136.773,118.678z M48.802,180.294c88.819,4.435,162.087,72.758,172.707,161.051
		C132.69,336.91,59.422,268.587,48.802,180.294z M166.531,361.781c14.689,4.626,29.919,7.64,45.472,8.983
		c-16.708,19.113-39.961,31.544-65.315,34.667C149.782,389.545,156.575,374.593,166.531,361.781z M237.712,438.28
		c-8.075-9.557-15.091-19.844-21.012-30.777c7.699-6.069,14.754-13.007,21.014-20.716c6.259,7.708,13.313,14.646,21.011,20.715
		C252.804,418.435,245.788,428.723,237.712,438.28z M328.742,405.43c-25.355-3.123-48.608-15.554-65.316-34.667
		c15.551-1.344,30.78-4.358,45.468-8.984C318.851,374.593,325.645,389.546,328.742,405.43z M253.902,341.346
		c5.119-42.905,25.014-82.227,56.979-112.035s72.579-46.911,115.736-49.025C415.997,268.585,342.729,336.919,253.902,341.346z"/>
	<path d="M237.712,30.01c3.95,0,7.81-1.61,10.609-4.4c2.79-2.79,4.391-6.66,4.391-10.61c0-3.94-1.601-7.81-4.391-10.6
		c-2.8-2.8-6.659-4.4-10.609-4.4s-7.811,1.6-10.61,4.4c-2.79,2.79-4.39,6.66-4.39,10.6c0,3.95,1.6,7.82,4.39,10.61
		C229.902,28.4,233.762,30.01,237.712,30.01z"/>
	<path d="M128.123,60c3.949,0,7.819-1.6,10.609-4.39s4.391-6.66,4.391-10.61c0-3.95-1.601-7.81-4.391-10.6s-6.66-4.4-10.609-4.4
		c-3.95,0-7.811,1.61-10.61,4.4c-2.79,2.79-4.39,6.65-4.39,10.6c0,3.95,1.6,7.82,4.39,10.61C120.312,58.4,124.172,60,128.123,60z"/>
	<path d="M347.292,60c3.939,0,7.81-1.6,10.6-4.39c2.8-2.79,4.4-6.66,4.4-10.61c0-3.95-1.601-7.81-4.4-10.6
		c-2.79-2.79-6.649-4.4-10.6-4.4s-7.82,1.61-10.61,4.4s-4.39,6.66-4.39,10.6c0,3.95,1.6,7.82,4.39,10.61S343.342,60,347.292,60z"/>
</g>
<g>
</g>
<g>
</g>
<g>
</g>
<g>
</g>
<g>
</g>
<g>
</g>
<g>
</g>
<g>
</g>
<g>
</g>
<g>
</g>
<g>
</g>
<g>
</g>
<g>
</g>
<g>
</g>
<g>
</g>
</svg>
