<?xml version="1.0" encoding="iso-8859-1"?>
<!-- Generator: Adobe Illustrator 18.0.0, SVG Export Plug-In . SVG Version: 6.00 Build 0)  -->
<!DOCTYPE svg PUBLIC "-//W3C//DTD SVG 1.1//EN" "http://www.w3.org/Graphics/SVG/1.1/DTD/svg11.dtd">
<svg version="1.1" id="Capa_1" xmlns="http://www.w3.org/2000/svg" xmlns:xlink="http://www.w3.org/1999/xlink" x="0px" y="0px"
	 viewBox="0 0 382.742 382.742" style="enable-background:new 0 0 382.742 382.742;" xml:space="preserve">
<g>
	<path d="M192.152,205.948c-8.138-6.648-17.28-12.151-27.131-16.41c16.434-14.422,26.825-35.574,26.825-59.105
		c0-43.358-35.274-78.632-78.633-78.632c-43.357,0-78.632,35.274-78.632,78.632c0,8.284,6.716,15,15,15s15-6.716,15-15
		c0-26.816,21.816-48.632,48.632-48.632c26.816,0,48.633,21.816,48.633,48.632c0,26.815-21.816,48.632-48.633,48.632
		c-8.284,0-15,6.716-15,15s6.716,15,15,15c45.885,0,83.215,29.263,83.215,65.231s-37.33,65.231-83.215,65.231S30,310.266,30,274.297
		c0-8.284-6.716-15-15-15s-15,6.716-15,15c0,26.019,12.173,50.292,34.276,68.349c21.221,17.335,49.255,26.883,78.938,26.883
		s57.717-9.547,78.938-26.883c22.104-18.056,34.276-42.33,34.276-68.349S214.256,224.005,192.152,205.948z"/>
	<path d="M304.11,126.5c-20.975,0-40.698,8.158-55.543,22.972l-39.326,38.524c-5.918,5.797-6.016,15.294-0.218,21.212
		c5.797,5.918,15.295,6.016,21.212,0.219l39.377-38.574c0.036-0.036,0.073-0.072,0.109-0.108
		c9.186-9.186,21.398-14.244,34.389-14.244c26.815,0,48.632,21.816,48.632,48.632s-21.816,48.632-48.632,48.632
		c-8.284,0-15,6.716-15,15s6.716,15,15,15c43.357,0,78.632-35.274,78.632-78.632S347.468,126.5,304.11,126.5z"/>
	<path d="M291.157,112.175c31.333,0,60.807-12.217,82.989-34.4c5.858-5.857,5.858-15.355,0-21.213
		c-5.857-5.858-15.355-5.858-21.213,0c-16.517,16.517-38.456,25.613-61.776,25.613s-45.259-9.096-61.775-25.613
		c-5.856-5.858-15.354-5.858-21.213,0c-5.858,5.857-5.858,15.355,0,21.213C230.352,99.959,259.824,112.175,291.157,112.175z"/>
	<path d="M267.415,47.793c7.887,1.624,15.856,2.432,23.802,2.432c14.518,0,28.949-2.696,42.625-8.033
		c7.717-3.011,11.532-11.708,8.521-19.426c-3.011-7.717-11.71-11.533-19.426-8.521c-15.752,6.146-32.858,7.586-49.471,4.166
		c-8.113-1.672-16.046,3.551-17.717,11.666S259.301,46.121,267.415,47.793z"/>
</g>
<g>
</g>
<g>
</g>
<g>
</g>
<g>
</g>
<g>
</g>
<g>
</g>
<g>
</g>
<g>
</g>
<g>
</g>
<g>
</g>
<g>
</g>
<g>
</g>
<g>
</g>
<g>
</g>
<g>
</g>
</svg>
